# xmcd
#
# Track frame offsets:
#	150
#	11597
#	25032
#	37087
#	49967
#	67397
#	82072
#	95460
#	110807
#	124755
#	139425
#	150817
#	166670
#	184212
#	197130
#
# Disc length: 2832 seconds
#
# Revision: 2
# Processed by: cddbd v1.5.2PL0 Copyright (c) Steve Scherf et al.
# Submitted via: EZCDAudioConverter 8.2.2.1
#
DISCID=d30b0e0f
DTITLE=SANDRO LÚCIO - TIRO CERTO [CD GMCD 13275) GEMA
DYEAR=2003
DGENRE=FORRÓ
TTITLE0=TIRO CERTO (BY GILMAR SINISTRO)
TTITLE1=ELA E A OUTRA (BY GILMAR SINISTRO)
TTITLE2=TÔ INDO EMBORA (BY GILMAR SINISTRO)
TTITLE3=MINHA PALOMA (BY GILMAR SINISTRO)
TTITLE4=PONTA DE FACA (BY GILMAR SINISTRO)
TTITLE5=DESEJOS DE MULHER (BY GILMAR SINISTRO)
TTITLE6=MESTRE DE OBRA (BY GILMAR SINISTRO)
TTITLE7=POR QUE VOCÊ NÃO LARGA DESSE CARA E FICA COMIGO (BY GILMAR SINISTRO)
TTITLE8=NA PORTA DE UM BAR (BY GILMAR SINISTRO)
TTITLE9=CHIFRE TROCADO (BY GILMAR SINISTRO)
TTITLE10=ELA METEU O PÉ EM MIM (BY GILMAR SINISTRO)
TTITLE11=PERDER VOCÊ É ABRAÇAR A SOLIDÃO (BY GILMAR SINISTRO)
TTITLE12=NÃO POSSO DIVIDIR VOCÊ (BY GILMAR SINISTRO)
TTITLE13=EU TENHO MEDO DE TE PERDER (BY GILMAR SINISTRO)
TTITLE14=QUEM SOU EU PRA SER SEU DONO (BY GILMAR SINISTRO)
EXTD=
EXTT0=
EXTT1=
EXTT2=
EXTT3=
EXTT4=
EXTT5=
EXTT6=
EXTT7=
EXTT8=
EXTT9=
EXTT10=
EXTT11=
EXTT12=
EXTT13=
EXTT14=
PLAYORDER=
